<svg width="61" height="48" viewBox="0 0 61 48" fill="none" xmlns="http://www.w3.org/2000/svg">
<path d="M4.63546 18.4559L2.31773 20.7422L0 18.4559L2.31773 16.1695L4.63546 18.4559ZM60.3659 44.3271C60.3659 45.1848 60.0205 46.0073 59.4057 46.6138C58.7909 47.2203 57.957 47.561 57.0876 47.561C56.2181 47.561 55.3843 47.2203 54.7695 46.6138C54.1547 46.0073 53.8093 45.1848 53.8093 44.3271H60.3659ZM18.709 36.9117L2.31773 20.7422L6.95319 16.1695L23.3445 32.339L18.709 36.9117ZM2.31773 16.1695L18.709 0L23.3445 4.57273L6.95319 20.7422L2.31773 16.1695ZM4.63546 15.222H37.418V21.6898H4.63546V15.222ZM60.3659 37.8593V44.3271H53.8093V37.8593H60.3659ZM37.418 15.222C43.5042 15.222 49.341 17.607 53.6446 21.8523C57.9481 26.0976 60.3659 31.8555 60.3659 37.8593H53.8093C53.8093 33.5709 52.0824 29.4581 49.0084 26.4257C45.9345 23.3933 41.7653 21.6898 37.418 21.6898V15.222Z" fill="black"/>
</svg>
