<svg width="65" height="65" viewBox="0 0 65 65" fill="none" xmlns="http://www.w3.org/2000/svg">
<path fill-rule="evenodd" clip-rule="evenodd" d="M44.2766 23.6142C44.2766 26.7456 43.0327 29.7488 40.8184 31.9631C38.6041 34.1773 35.601 35.4213 32.4695 35.4213C29.3381 35.4213 26.3349 34.1773 24.1206 31.9631C21.9064 29.7488 20.6624 26.7456 20.6624 23.6142C20.6624 20.4828 21.9064 17.4796 24.1206 15.2653C26.3349 13.0511 29.3381 11.8071 32.4695 11.8071C35.601 11.8071 38.6041 13.0511 40.8184 15.2653C43.0327 17.4796 44.2766 20.4828 44.2766 23.6142ZM38.3731 23.6142C38.3731 25.1799 37.7511 26.6815 36.644 27.7886C35.5368 28.8958 34.0352 29.5177 32.4695 29.5177C30.9038 29.5177 29.4022 28.8958 28.2951 27.7886C27.188 26.6815 26.566 25.1799 26.566 23.6142C26.566 22.0485 27.188 20.5469 28.2951 19.4398C29.4022 18.3326 30.9038 17.7106 32.4695 17.7106C34.0352 17.7106 35.5368 18.3326 36.644 19.4398C37.7511 20.5469 38.3731 22.0485 38.3731 23.6142Z" fill="black"/>
<path fill-rule="evenodd" clip-rule="evenodd" d="M32.4695 0C14.5375 0 0 14.5375 0 32.4695C0 50.4015 14.5375 64.939 32.4695 64.939C50.4015 64.939 64.939 50.4015 64.939 32.4695C64.939 14.5375 50.4015 0 32.4695 0ZM5.90355 32.4695C5.90355 38.6387 8.00816 44.3179 11.5355 48.8282C14.0134 45.5758 17.2093 42.9399 20.8739 41.1263C24.5385 39.3127 28.5726 38.3704 32.6614 38.3731C36.6976 38.3684 40.6815 39.2854 44.3095 41.0544C47.9374 42.8233 51.1134 45.3974 53.5954 48.5803C56.1529 45.2259 57.8749 41.3107 58.619 37.1587C59.363 33.0066 59.1076 28.7371 57.8739 24.7033C56.6403 20.6696 54.4638 16.9876 51.5246 13.962C48.5855 10.9364 44.9681 8.65419 40.9718 7.30419C36.9754 5.95419 32.7151 5.57523 28.5432 6.19865C24.3714 6.82206 20.4079 8.42995 16.9809 10.8893C13.5538 13.3486 10.7616 16.5886 8.83534 20.3413C6.90906 24.0939 5.90408 28.2513 5.90355 32.4695ZM32.4695 59.0355C26.3709 59.0454 20.4562 56.9473 15.7271 53.0965C17.6304 50.3709 20.1641 48.1455 23.1126 46.6099C26.0611 45.0742 29.337 44.2737 32.6614 44.2766C35.9443 44.2737 39.1805 45.0543 42.1011 46.5533C45.0217 48.0524 47.5425 50.2268 49.454 52.8958C44.6883 56.8718 38.676 59.0452 32.4695 59.0355Z" fill="black"/>
</svg>
