<svg width="47" height="47" viewBox="0 0 47 47" fill="none" xmlns="http://www.w3.org/2000/svg">
<path d="M43.3444 47L26.8944 30.55C25.5889 31.5944 24.0875 32.4213 22.3903 33.0306C20.6931 33.6398 18.887 33.9444 16.9722 33.9444C12.2287 33.9444 8.21456 32.3012 4.92978 29.0147C1.645 25.7281 0.00174225 21.714 1.48105e-06 16.9722C-0.00173929 12.2304 1.64152 8.2163 4.92978 4.92978C8.21804 1.64326 12.2322 -7.17178e-08 16.9722 -9.95088e-08C21.7123 -1.273e-07 25.7273 1.64326 29.0173 4.92978C32.3073 8.2163 33.9497 12.2304 33.9444 16.9722C33.9444 18.887 33.6398 20.6931 33.0306 22.3903C32.4213 24.0875 31.5944 25.5889 30.55 26.8944L47 43.3444L43.3444 47ZM16.9722 28.7222C20.2361 28.7222 23.0109 27.5803 25.2964 25.2964C27.582 23.0126 28.724 20.2379 28.7222 16.9722C28.7205 13.7066 27.5786 10.9327 25.2964 8.65061C23.0143 6.3685 20.2396 5.2257 16.9722 5.22222C13.7049 5.21874 10.931 6.36154 8.65061 8.65061C6.37024 10.9397 5.22745 13.7136 5.22222 16.9722C5.217 20.2309 6.3598 23.0056 8.65061 25.2964C10.9414 27.5873 13.7153 28.7292 16.9722 28.7222Z" fill="black"/>
</svg>
