<svg width="57" height="57" viewBox="0 0 57 57" fill="none" xmlns="http://www.w3.org/2000/svg">
<path d="M28.5 2.5V5.38889M46.8733 10.1267L44.8511 12.1489M54.5 28.5H51.6111M46.8733 46.8733L44.8511 44.8511M28.5 54.5V51.6111M10.1267 46.8733L12.1489 44.8511M2.5 28.5H5.38889M10.1267 10.1267L12.1489 12.1489M40.0556 28.5C40.0556 30.7855 39.3778 33.0196 38.1081 34.9199C36.8384 36.8202 35.0336 38.3013 32.9221 39.1759C30.8106 40.0506 28.4872 40.2794 26.2456 39.8335C24.0041 39.3876 21.9451 38.2871 20.329 36.671C18.7129 35.0549 17.6124 32.9959 17.1665 30.7544C16.7206 28.5128 16.9494 26.1894 17.8241 24.0779C18.6987 21.9664 20.1798 20.1616 22.0801 18.8919C23.9804 17.6222 26.2145 16.9444 28.5 16.9444C31.5647 16.9444 34.5039 18.1619 36.671 20.329C38.8381 22.4961 40.0556 25.4353 40.0556 28.5Z" stroke="black" stroke-width="5" stroke-linecap="round" stroke-linejoin="round"/>
</svg>
